<svg width="100" height="100" viewBox="0 0 100 100" fill="none" xmlns="http://www.w3.org/2000/svg">
<rect width="100" height="100" fill="white"/>
<path fill-rule="evenodd" clip-rule="evenodd" d="M50 22.875C55.3648 22.875 60.6092 24.4659 65.0698 27.4464C69.5305 30.4269 73.0072 34.6633 75.0602 39.6197C77.1133 44.5762 77.6504 50.0301 76.6038 55.2918C75.5572 60.5536 72.9738 65.3868 69.1803 69.1803C65.3868 72.9738 60.5536 75.5572 55.2918 76.6038C50.0301 77.6504 44.5762 77.1133 39.6197 75.0602C34.6633 73.0072 30.4269 69.5305 27.4464 65.0698C24.4659 60.6092 22.875 55.3648 22.875 50C22.875 42.806 25.7328 35.9067 30.8197 30.8197C35.9067 25.7328 42.806 22.875 50 22.875Z" fill="#CC6699"/>
<path d="M67.0149 34.4845C65.7866 29.6679 57.7983 28.0908 50.2381 30.7684C45.5035 32.3594 41.1291 34.8685 37.3654 38.1522C33.2017 42.0466 32.5371 45.4372 32.8103 46.8535C33.7791 51.8523 40.6243 55.1189 43.4394 57.5427V57.5563C42.6102 57.9651 36.5342 61.0438 35.1082 64.1825C33.6086 67.4995 35.3465 69.8788 36.4993 70.1985C38.2301 70.6151 40.048 70.4795 41.6978 69.8106C43.3476 69.1418 44.7466 67.9731 45.6986 66.4688C46.4853 65.2499 46.9775 63.8647 47.1362 62.4227C47.295 60.9807 47.1159 59.5216 46.6131 58.1608C47.9691 57.8162 49.3786 57.7353 50.7651 57.9225C55.5236 58.4785 56.4575 61.4487 56.2793 62.6926C56.1954 63.1354 56.0172 63.5549 55.7568 63.9226C55.4963 64.2904 55.1598 64.5978 54.7699 64.8238C54.4367 65.0311 54.334 65.1009 54.3631 65.2559C54.4038 65.4787 54.5568 65.471 54.8416 65.4225C55.5567 65.1973 56.1868 64.7607 56.6489 64.1704C57.1109 63.58 57.3833 62.8635 57.4301 62.1152C57.5444 59.209 54.7525 55.9423 49.808 56.0256C48.3719 55.9846 46.9389 56.181 45.5668 56.6069C45.499 56.5294 45.4293 56.4519 45.3576 56.3744C42.3002 53.1136 36.6504 50.806 36.8888 46.4215C36.9759 44.8269 37.5301 40.6303 47.7388 35.5385C56.1088 31.3671 62.8086 32.516 63.9673 35.06C65.6219 38.6947 60.3868 45.4469 51.6951 46.4215C50.7345 46.6165 49.7422 46.5927 48.792 46.3519C47.8418 46.111 46.958 45.6594 46.2062 45.0303C45.7489 44.5266 45.6811 44.5053 45.5106 44.5983C45.2336 44.7513 45.4099 45.197 45.5106 45.4605C45.8434 46.0603 46.2927 46.5876 46.832 47.0114C47.3713 47.4353 47.9899 47.7472 48.6513 47.9288C52.0686 48.6714 55.633 48.3189 58.8387 46.9213C64.1106 44.8889 68.222 39.2217 67.0149 34.4845ZM44.6097 59.0346C44.9945 60.3612 44.975 61.7724 44.5535 63.0878C44.5083 63.2247 44.4586 63.3604 44.4043 63.4947C44.3501 63.629 44.2913 63.7582 44.228 63.8822C43.9019 64.5494 43.4796 65.165 42.9744 65.7093C41.3993 67.4278 39.1963 68.0788 38.2528 67.5305C37.2336 66.9396 37.7432 64.5158 39.5703 62.5841C40.9741 61.1958 42.5927 60.0431 44.3636 59.1702L44.6097 59.0346Z" fill="white"/>
</svg>
